# xmcd
#
# Track frame offsets:
# 150
# 14907
# 33215
# 60610
# 79010
# 97802
# 124317
# 135482
# 158385
# 195290
# 218822
#
# Disc length: 3174 seconds
#
#
# Revision: 0
# Processed by: cddbd v1.5.1PL2 Copyright (c) Steve Scherf et al.
# Submitted via: FreeRIP 2.60 
#
DISCID=840c640b
DTITLE=Never Never - Hurricane In My Heart
DYEAR=1992
DGENRE=Rock
TTITLE0=Hurricane In My Heart
TTITLE1=Hey Diddle Diddle
TTITLE2=Never Run Away
TTITLE3=No Lifetime Guarantee
TTITLE4=Lovin Time
TTITLE5=Road Less Traveled
TTITLE6=Trmperance
TTITLE7=Fool For You
TTITLE8=St Vitus Dance
TTITLE9=Dead End Boys
TTITLE10=Body And Soul
EXTD=
EXTT0=
EXTT1=
EXTT2=
EXTT3=
EXTT4=
EXTT5=
EXTT6=
EXTT7=
EXTT8=
EXTT9=
EXTT10=
PLAYORDER=
